<svg xmlns="http://www.w3.org/2000/svg" viewBox="0 0 390 205.67">
    <path fill="#FFF" d="M194.4,205.3c-17.6,0-29.8.8-48.4,0V189.1c14.6,1.6,33.3,2,48.4,2,36.7,0,72.3-4.9,103-14.1,29.9-9,58.2-25,73.4-39.9L390,150.3c-17.7,17.3-41.3,28.2-76,38.6C278.3,199.7,237,205.3,194.4,205.3Z"
          transform="translate(0 0.01)"/>
    <path fill="#FFF" d="M24.7,38l91.4,63.3L146,85.2V12h40.6V196.3H146V105.2h-1.4c-8.4,5.6-16.8,10.9-24.8,15.6l-87,49.7L7.4,157.1l10.4-5.7,69.3-37.8L9.8,60.6,0,53.9"
          transform="translate(0 0.01)"/>
    <path fill="#FFF" d="M361.1,60.7c-34-27.1-99.2-46.4-166.7-46.4A481.39,481.39,0,0,0,146,16.6V2.5A405.24,405.24,0,0,1,194.4,0c78.3,0,148.8,17.4,188.2,48.9Z"
          transform="translate(0 0.01)"/>
    <path fill="#FFF" d="M376.9,52.1,304.4,91.6l83.9,57.6-28.5,13.3L275.5,104l-29.9,16.1v73.2H205V11.3h40.6v88.8H247c8.4-5.6,16.8-10.9,24.8-15.6l81.3-46.4"
          transform="translate(0 0.01)"/>
</svg>